 <svg  version="1.0" xmlns="http://www.w3.org/2000/svg"  width="450.000000pt" height="300.000000pt" viewBox="0 0 450.000000 300.000000"  preserveAspectRatio="xMidYMid meet">  <g transform="translate(0.000000,300.000000) scale(0.100000,-0.100000)" fill="#ae2d2d" stroke="none"> <path d="M2415 2571 c-40 -10 -75 -29 -75 -42 0 -6 -4 -8 -9 -5 -4 3 -18 -14 -30 -37 -17 -34 -21 -56 -19 -109 2 -36 6 -64 11 -61 4 2 7 -3 7 -12 0 -25 87 -145 104 -145 4 0 14 -7 22 -15 9 -8 13 -15 10 -15 -8 0 35 -43 55 -55 9 -5 35 -23 59 -38 41 -28 90 -31 90 -7 0 6 7 10 15 10 8 0 15 4 15 8 0 5 12 15 27 23 14 8 51 41 82 73 31 33 67 70 80 83 13 13 30 48 39 76 18 61 24 157 10 157 -5 0 -6 5 -3 11 4 6 -14 30 -39 55 -47 44 -67 51 -141 46 -34 -3 -85 -23 -85 -34 0 -5 -3 -7 -7 -6 -5 0 -16 -2 -26 -7 -11 -4 -24 -2 -35 7 -42 35 -108 51 -157 39z m77 -22 c21 -5 54 -26 73 -46 l34 -35 33 35 c77 81 205 63 252 -37 47 -100 -11 -214 -184 -360 -50 -42 -95 -76 -100 -76 -15 0 -204 165 -234 204 -47 62 -69 123 -64 178 6 61 31 96 88 126 51 25 52 25 102 11z"/> <path d="M2405 2506 c-66 -28 -84 -111 -43 -194 21 -45 87 -116 185 -199 l52 -45 90 77 c149 128 200 229 156 314 -16 31 -65 61 -101 61 -34 0 -86 -34 -107 -71 -12 -21 -28 -39 -34 -39 -7 0 -24 18 -39 39 -26 40 -76 71 -111 71 -10 -1 -32 -7 -48 -14z m85 -29 c0 -6 3 -7 7 -4 4 4 23 -11 44 -33 21 -22 47 -40 58 -40 19 0 81 56 81 73 0 5 5 5 10 2 6 -3 10 -1 10 5 0 7 7 10 15 6 8 -3 15 0 15 6 0 7 4 7 14 -1 7 -6 20 -9 29 -5 10 3 20 -2 27 -16 6 -11 15 -18 19 -15 15 9 20 -48 9 -90 -16 -58 -115 -185 -144 -185 -7 0 -15 -8 -18 -18 -11 -32 -50 -47 -86 -32 -41 17 -180 151 -180 174 0 9 -4 15 -8 12 -5 -3 -14 17 -21 44 -10 39 -10 52 1 71 16 29 39 54 49 54 4 0 10 3 13 6 10 9 56 -2 56 -14z"/> <path d="M827 2378 c-6 -4 -22 -8 -35 -8 -68 0 -251 -87 -295 -139 -14 -17 -27 -28 -29 -25 -9 9 -74 -102 -91 -155 -22 -68 -21 -89 2 -143 24 -54 66 -94 111 -103 42 -9 37 -1 -21 28 -79 40 -108 128 -72 219 52 134 154 222 325 279 76 26 114 33 208 36 137 6 217 -10 328 -63 93 -45 154 -105 195 -192 29 -62 32 -75 31 -167 -1 -116 -17 -182 -76 -300 -52 -103 -90 -154 -180 -241 -126 -122 -242 -186 -412 -229 -167 -42 -385 -31 -496 25 -51 26 -74 69 -67 129 6 58 41 91 95 91 57 0 168 -57 149 -76 -3 -3 -32 6 -66 20 -33 14 -69 26 -80 26 -30 0 -61 -32 -67 -70 -9 -54 22 -85 109 -112 94 -30 306 -32 407 -5 292 79 504 261 612 524 30 73 32 86 33 203 0 125 0 125 -36 190 -47 87 -128 149 -242 186 -69 23 -100 27 -202 27 -137 1 -208 -14 -322 -68 -129 -62 -223 -182 -223 -283 0 -56 20 -93 67 -124 l39 -26 27 20 c15 11 32 28 37 39 9 16 5 21 -24 33 -39 16 -53 48 -41 94 3 15 34 54 68 87 48 47 78 66 136 88 253 96 544 20 604 -158 52 -151 -21 -363 -178 -521 -148 -149 -317 -223 -525 -231 -100 -4 -125 -1 -198 20 -49 14 -85 20 -88 15 -28 -46 193 -89 346 -68 325 44 592 260 676 545 26 89 24 207 -4 270 -57 124 -182 193 -367 202 -184 9 -347 -47 -442 -151 -85 -93 -91 -175 -16 -211 25 -12 32 -20 24 -28 -30 -30 -111 46 -111 105 0 84 99 200 217 255 112 51 189 66 323 60 129 -5 216 -31 295 -88 139 -100 170 -285 83 -496 -134 -326 -523 -546 -873 -493 -131 19 -196 59 -180 109 9 30 30 32 98 10 130 -42 290 -36 442 19 266 94 458 334 459 572 1 120 -51 193 -171 241 -50 21 -75 24 -188 24 -100 0 -142 -4 -182 -18 -82 -29 -168 -89 -197 -140 -32 -54 -32 -65 -1 -79 13 -6 26 -18 27 -27 2 -11 6 -12 11 -5 4 7 -3 24 -14 39 -19 24 -20 29 -8 53 20 40 67 80 130 112 59 30 89 28 71 -6 -19 -36 -42 -92 -42 -104 0 -6 -4 -9 -8 -6 -5 3 -9 0 -9 -7 0 -11 -14 -44 -68 -162 -12 -27 -33 -75 -46 -105 -12 -30 -28 -62 -35 -70 -7 -8 -16 -27 -19 -42 -4 -16 -11 -28 -16 -28 -5 0 -9 -5 -9 -11 0 -5 -17 -46 -37 -90 -35 -75 -40 -80 -63 -74 -14 3 -50 8 -80 11 -48 4 -58 2 -83 -20 -26 -24 -44 -59 -53 -100 -2 -10 8 -40 21 -66 44 -86 152 -122 366 -121 70 0 139 5 153 11 15 5 32 8 37 4 5 -3 9 -1 9 4 0 5 21 12 46 15 26 2 49 10 53 16 4 6 18 13 31 15 14 2 26 5 28 7 1 1 7 3 12 4 6 1 13 4 18 5 4 1 11 2 15 1 5 -1 6 2 3 7 -3 5 12 14 32 22 20 7 42 18 48 24 6 6 22 18 34 26 12 8 28 20 34 26 6 6 22 16 34 23 12 7 20 17 16 23 -4 6 -3 8 3 5 10 -6 67 51 137 135 45 56 62 55 35 -2 -10 -21 -19 -46 -19 -54 0 -8 -4 -17 -9 -21 -6 -3 -10 -13 -10 -23 -1 -9 -3 -45 -5 -79 -3 -62 -3 -62 33 -88 21 -14 42 -25 48 -25 6 0 14 -7 17 -16 9 -23 99 -13 149 16 l37 22 27 -22 c35 -27 92 -52 104 -44 5 3 9 1 9 -5 0 -12 41 -6 116 16 47 14 54 13 85 -2 44 -23 149 -16 200 13 l37 20 35 -24 c41 -27 99 -32 150 -10 29 12 94 62 121 94 6 7 22 26 36 42 38 44 44 53 57 83 7 15 17 27 23 27 5 0 10 -1 10 -2 0 -2 3 -34 6 -73 4 -49 12 -76 25 -91 11 -11 17 -23 13 -26 -3 -4 11 -14 31 -23 27 -13 52 -16 101 -12 35 2 70 9 77 14 15 12 54 27 45 17 -12 -11 36 -43 85 -56 37 -10 57 -9 99 1 29 8 62 18 73 24 11 6 24 10 28 9 5 -1 6 2 2 8 -4 6 4 10 19 10 14 0 26 -4 26 -9 0 -16 70 -42 121 -46 27 -2 47 0 44 5 -3 4 3 6 13 4 9 -3 38 9 62 25 53 36 55 36 78 13 24 -23 109 -52 155 -52 39 0 102 34 92 50 -3 4 16 11 41 15 54 8 153 64 205 115 45 45 109 142 105 161 -7 32 -20 51 -48 65 -26 13 -32 13 -51 1 -29 -19 -77 -68 -77 -78 0 -4 -25 -28 -55 -53 -62 -50 -162 -87 -176 -65 -5 9 3 18 24 27 18 8 43 19 57 25 14 6 44 24 66 39 23 15 44 24 48 21 3 -4 6 -1 6 6 0 6 12 24 26 39 28 29 52 78 65 131 11 48 -13 118 -53 155 -31 29 -38 31 -108 31 -76 0 -96 -8 -204 -78 -44 -29 -149 -147 -131 -147 4 0 -3 -12 -14 -26 -12 -15 -21 -35 -21 -45 0 -10 -4 -21 -10 -24 -5 -3 -10 -14 -10 -23 -1 -20 -50 -86 -67 -89 -9 -2 -10 4 -4 20 13 32 24 61 25 67 1 3 6 12 11 20 5 8 10 20 11 25 0 6 2 17 3 25 1 13 2 13 11 0 7 -11 10 -5 10 23 0 20 4 37 8 37 4 0 8 10 9 22 1 11 6 24 10 27 8 6 22 33 64 126 12 28 26 57 30 65 43 79 101 200 104 216 2 10 4 19 5 19 8 0 8 56 0 81 -20 60 -117 72 -168 20 -32 -31 -121 -184 -127 -216 0 -3 -8 -19 -18 -36 -15 -29 -44 -104 -50 -129 -1 -5 -6 -13 -12 -17 -5 -4 -10 -11 -11 -15 -1 -11 -16 -47 -58 -135 -20 -42 -39 -87 -41 -99 -3 -12 -9 -27 -14 -32 -5 -5 -7 -15 -5 -22 6 -15 -26 -56 -38 -49 -4 3 -8 -1 -8 -9 0 -8 -8 -21 -19 -31 -15 -13 -20 -14 -29 -3 -17 21 5 82 52 146 14 19 23 38 20 42 -3 5 -1 9 4 9 5 0 17 19 26 43 35 93 8 166 -56 152 -18 -3 -46 -6 -63 -4 -119 8 -161 4 -215 -23 -30 -15 -80 -50 -112 -78 -31 -27 -62 -50 -69 -50 -10 0 -10 3 -1 12 7 7 12 31 12 53 0 77 -76 114 -143 71 -31 -21 -83 -123 -93 -184 -3 -23 -11 -39 -16 -36 -5 3 -9 0 -7 -7 4 -30 -2 -48 -26 -83 -13 -20 -21 -36 -17 -36 10 0 -31 -28 -43 -28 -5 0 -13 -9 -17 -19 -6 -14 -7 -12 -4 7 10 60 37 144 61 191 9 16 12 29 8 29 -4 0 -2 5 5 12 15 15 16 63 2 89 -8 13 -21 19 -48 19 -34 0 -40 -5 -72 -53 -19 -28 -41 -56 -47 -60 -7 -4 -13 -16 -13 -25 0 -9 -9 -28 -20 -42 -11 -14 -20 -29 -20 -33 0 -5 -6 -14 -12 -21 -7 -8 -20 -24 -28 -36 -30 -45 -51 -64 -73 -67 -17 -3 -19 -1 -9 9 6 6 12 21 12 31 0 20 30 80 43 85 4 2 5 8 1 13 -3 5 -1 9 4 9 6 0 13 11 16 25 4 16 11 23 18 19 6 -4 8 -3 5 3 -4 6 0 16 8 23 20 17 46 107 39 136 -6 23 -22 34 -60 41 -16 2 -32 -11 -65 -54 -24 -32 -46 -60 -49 -63 -3 -3 -14 -23 -25 -45 -11 -22 -22 -42 -25 -45 -3 -3 -16 -27 -30 -54 -14 -27 -53 -78 -88 -113 -56 -57 -67 -64 -90 -58 -37 9 -37 10 -22 55 9 28 16 37 22 28 6 -10 8 -9 8 4 0 9 8 22 18 27 9 6 13 11 9 11 -4 0 6 15 22 33 17 17 31 36 31 40 0 5 5 5 12 1 6 -4 8 -3 4 4 -3 6 2 15 11 21 10 6 15 11 11 11 -4 0 3 10 15 23 38 41 58 67 104 143 24 40 48 76 53 79 5 3 6 13 3 23 -3 9 -3 14 2 10 7 -7 53 70 60 102 2 8 8 28 14 44 7 18 9 47 4 75 -4 25 -6 49 -5 54 1 4 -3 7 -8 7 -6 0 -10 7 -10 15 0 16 -33 38 -65 43 -55 9 -73 8 -105 -6 -51 -20 -188 -181 -174 -204 3 -4 0 -8 -5 -8 -6 0 -11 -4 -11 -10 0 -5 -17 -33 -37 -62 -21 -29 -37 -55 -37 -58 2 -8 -15 -50 -37 -92 -10 -20 -19 -44 -19 -54 0 -24 -26 0 -34 31 -5 18 -13 25 -31 25 -16 0 -25 6 -25 16 0 10 7 14 23 13 12 -2 28 1 36 5 10 7 12 6 6 -4 -14 -22 31 13 54 42 11 14 21 43 23 68 2 38 -2 46 -30 69 -84 71 -199 -38 -147 -138 15 -29 14 -32 -1 -38 -19 -7 -58 -43 -47 -43 4 0 -3 -9 -14 -20 -12 -10 -24 -33 -28 -49 -4 -17 -11 -34 -17 -37 -6 -4 -8 1 -3 15 3 12 8 35 10 52 3 17 9 37 16 45 7 8 12 63 14 136 3 115 1 128 -24 189 -25 59 -104 169 -123 169 -4 0 -26 13 -50 29 -24 16 -62 34 -85 40 -23 6 -45 16 -48 21 -3 5 -16 10 -28 10 -12 -1 -49 4 -82 10 -67 11 -218 10 -238 -2z m2891 -184 c12 -14 22 -37 22 -52 0 -14 -58 -146 -129 -292 -226 -464 -259 -580 -128 -447 36 35 57 67 66 97 36 122 120 226 230 284 57 30 79 36 130 36 55 0 65 -3 97 -33 101 -92 19 -259 -171 -348 -44 -20 -91 -39 -104 -41 -65 -9 -8 -62 65 -60 85 1 181 65 275 182 l36 44 26 -17 c35 -23 34 -52 -2 -108 -92 -142 -275 -233 -401 -199 -55 15 -105 64 -120 118 -38 141 126 367 282 388 38 5 49 3 67 -15 69 -69 -51 -202 -241 -265 -73 -25 -73 -25 -76 -63 -3 -44 28 -99 68 -121 42 -22 156 -11 220 21 64 33 153 116 181 169 30 58 5 55 -41 -5 -90 -120 -257 -196 -340 -154 -23 11 -70 70 -70 87 0 4 24 15 53 25 184 59 297 161 297 266 0 41 -4 51 -32 74 -27 23 -39 26 -79 23 -59 -6 -125 -38 -183 -90 -61 -53 -97 -107 -130 -193 -19 -52 -39 -84 -74 -117 -58 -58 -101 -81 -119 -66 -42 34 11 180 219 610 98 203 100 208 84 233 -34 51 -71 29 -131 -79 -41 -74 -206 -440 -250 -555 -21 -56 -41 -87 -84 -131 -62 -63 -111 -93 -144 -88 -19 3 -22 9 -21 45 0 31 20 81 77 196 42 84 77 163 77 175 0 31 -19 37 -44 13 l-22 -20 -34 20 c-26 16 -46 20 -85 17 -71 -6 -121 -33 -191 -103 -167 -165 -197 -415 -50 -415 46 0 122 34 139 61 16 26 24 24 32 -11 9 -39 58 -80 97 -80 51 0 103 20 157 61 28 22 53 39 55 39 2 0 9 -14 16 -30 18 -43 47 -60 100 -60 50 0 140 45 162 80 15 23 38 27 38 6 0 -22 65 -74 107 -85 21 -6 58 -11 82 -11 37 0 42 -2 31 -15 -29 -35 -152 -11 -208 39 l-36 33 -43 -33 c-44 -33 -98 -54 -141 -54 -34 0 -91 29 -108 55 l-15 23 -49 -33 c-96 -64 -189 -64 -248 0 -31 33 -35 35 -51 21 -47 -42 -131 -57 -180 -32 -49 26 -66 62 -66 146 0 68 4 83 44 165 77 158 211 267 332 269 31 1 68 -5 83 -13 20 -11 29 -12 38 -3 30 30 98 0 98 -43 0 -13 -33 -89 -73 -171 -113 -229 -117 -244 -54 -205 54 33 133 123 147 166 19 61 176 418 233 528 88 174 141 210 205 141z m-1581 -4 c73 -44 79 -121 17 -245 -53 -105 -172 -279 -263 -382 -45 -50 -85 -103 -91 -118 -15 -39 -13 -105 4 -111 42 -16 175 103 230 207 16 29 56 96 89 147 45 70 64 92 81 92 61 0 60 -52 -5 -160 -88 -145 -140 -280 -110 -280 37 0 164 156 241 295 55 99 79 115 113 77 19 -21 17 -31 -38 -167 -41 -102 -57 -195 -33 -195 20 0 102 86 93 99 -3 7 -1 10 7 9 8 -2 27 39 53 117 22 66 48 134 58 152 35 65 103 84 133 38 23 -35 13 -97 -31 -193 -73 -157 -166 -286 -255 -353 -44 -33 -60 -39 -101 -39 -40 0 -55 5 -81 29 l-32 29 -36 -24 c-72 -47 -170 -51 -211 -8 l-21 23 -28 -21 c-52 -38 -148 -44 -211 -12 -15 7 -38 27 -52 43 -21 25 -27 28 -37 16 -19 -23 -111 -65 -142 -65 -42 0 -34 13 20 33 27 9 69 35 94 57 26 22 50 40 55 40 4 0 15 -15 23 -32 25 -54 62 -73 139 -73 58 0 74 4 111 29 l43 28 24 -31 c20 -25 32 -31 64 -31 47 0 100 20 148 57 27 21 36 24 39 13 9 -26 60 -70 82 -70 90 0 208 126 314 337 65 130 77 193 39 207 -29 11 -68 -48 -107 -164 -43 -123 -98 -211 -163 -254 -44 -30 -56 -32 -73 -11 -20 24 4 141 51 258 22 55 38 102 35 104 -10 10 -26 -10 -66 -85 -111 -202 -256 -342 -297 -286 -26 36 8 132 114 317 37 66 52 102 46 108 -11 11 -82 -93 -144 -210 -60 -114 -187 -231 -250 -231 -46 0 -62 25 -57 89 5 70 14 86 117 207 157 185 281 398 281 483 0 84 -68 117 -141 68 -19 -12 -55 -54 -81 -92 -64 -95 -190 -349 -229 -462 -25 -75 -42 -104 -91 -162 -102 -120 -188 -159 -188 -84 0 52 189 413 216 413 8 0 14 -4 14 -9 0 -5 -36 -75 -80 -154 -83 -148 -126 -249 -109 -255 24 -9 138 90 169 147 7 13 28 72 47 130 41 126 173 389 242 482 33 44 63 73 92 87 54 27 75 27 116 2z m-1045 -22 c9 -1 14 -6 12 -10 -3 -4 9 -8 25 -8 17 0 31 -4 31 -9 0 -5 13 -14 29 -21 17 -6 46 -32 65 -58 35 -44 36 -47 36 -138 0 -51 -4 -96 -10 -99 -5 -3 -10 -13 -10 -21 0 -15 -50 -123 -73 -158 -12 -19 -37 -47 -91 -104 -36 -39 -116 -97 -116 -85 0 4 -5 0 -11 -9 -5 -10 -17 -18 -24 -18 -8 0 -15 -4 -15 -9 0 -5 -10 -13 -22 -17 -13 -3 -42 -15 -64 -25 -49 -22 -172 -43 -220 -37 -19 2 -34 0 -34 -6 0 -5 -2 -7 -5 -4 -3 2 10 36 28 74 19 38 42 87 52 109 10 22 28 50 39 63 12 13 19 24 17 25 -6 3 17 68 38 110 10 20 21 33 25 30 3 -4 6 5 6 18 0 14 5 30 11 36 6 6 11 17 13 26 3 20 39 91 49 95 4 2 7 15 7 28 0 14 7 27 15 30 8 4 12 10 9 15 -3 6 8 31 25 58 17 26 31 58 31 70 0 12 5 31 11 43 11 20 9 20 121 6z m-222 -11 c0 -8 -57 -135 -126 -283 -69 -148 -146 -314 -172 -369 -49 -107 -60 -125 -73 -125 -21 0 -2 49 130 329 76 163 156 333 176 379 21 45 44 82 51 82 8 0 14 -6 14 -13z m80 3 c0 -5 -21 -54 -46 -107 -25 -54 -64 -138 -86 -188 -113 -250 -247 -515 -262 -515 -9 0 -16 5 -16 10 0 6 33 77 74 158 40 81 97 199 126 262 29 63 75 162 102 220 28 58 57 120 64 138 13 29 44 45 44 22z m2720 -17 c0 -5 -40 -89 -89 -188 -153 -308 -241 -530 -241 -610 0 -92 82 -88 184 8 57 55 79 46 31 -11 -44 -52 -113 -92 -160 -92 -54 0 -76 24 -83 90 l-5 51 -53 -53 c-65 -64 -125 -98 -173 -98 -71 0 -102 51 -83 135 l9 40 -58 -56 c-99 -98 -183 -111 -209 -35 -24 75 22 194 115 294 59 64 139 112 186 112 42 0 80 -18 86 -40 7 -26 15 -25 31 1 7 12 16 19 19 16 3 -3 -27 -71 -67 -150 -58 -114 -74 -156 -78 -201 -7 -86 26 -107 106 -69 61 29 187 156 201 203 28 94 248 569 293 633 18 26 38 36 38 20z m-1542 -59 c8 -61 -167 -343 -319 -516 -48 -54 -62 -78 -75 -129 -19 -72 -13 -137 12 -156 25 -18 99 -16 136 3 18 9 56 39 85 67 29 27 53 46 54 41 1 -5 2 -34 3 -64 1 -55 1 -55 34 -58 47 -5 110 35 171 109 28 33 55 68 60 77 17 30 20 8 10 -63 -13 -85 -2 -125 34 -125 70 0 211 180 278 355 35 91 45 106 55 81 15 -40 -92 -254 -180 -360 -108 -130 -208 -142 -223 -27 l-6 41 -57 -53 c-65 -61 -122 -83 -166 -66 -33 12 -44 26 -44 57 0 22 -2 21 -51 -13 -66 -45 -121 -60 -169 -46 -56 17 -74 42 -78 116 l-4 64 -37 -43 c-100 -122 -224 -175 -274 -118 -44 52 -23 134 89 352 92 177 108 200 124 184 7 -7 -4 -36 -35 -90 -125 -216 -184 -371 -159 -412 6 -9 27 -18 46 -20 47 -4 132 59 217 160 51 61 69 92 87 150 46 145 213 458 275 518 51 48 101 41 107 -16z m-417 -103 c35 -28 33 -95 -4 -127 -85 -73 -177 38 -98 117 34 34 69 37 102 10z m-21 -292 c0 -5 -5 -9 -10 -9 -6 0 -10 -6 -8 -12 1 -7 -4 -24 -11 -37 -7 -13 -8 -21 -3 -17 6 3 2 -17 -8 -46 -10 -29 -16 -56 -14 -60 3 -5 0 -8 -5 -8 -6 0 -11 -6 -11 -13 0 -16 -77 -97 -91 -97 -5 0 -9 5 -9 11 0 5 -5 7 -10 4 -6 -4 -7 -11 -4 -17 4 -6 2 -8 -3 -5 -7 5 -5 18 5 41 9 19 18 33 22 31 3 -2 7 5 7 16 1 11 21 52 45 92 24 39 49 84 56 100 6 15 16 27 22 27 6 0 8 4 5 10 -3 6 1 7 9 4 9 -3 16 -10 16 -15z m-270 -130 c0 -11 -4 -17 -10 -14 -5 3 -10 13 -10 21 0 8 5 14 10 14 6 0 10 -9 10 -21z"/> <path d="M3829 1690 c-50 -26 -121 -101 -154 -162 l-28 -51 29 7 c58 14 173 78 218 121 35 34 46 52 46 75 0 28 -2 30 -37 30 -21 -1 -54 -9 -74 -20z m74 -13 c7 -18 -29 -58 -90 -101 -61 -42 -88 -47 -78 -15 11 34 46 69 100 100 57 33 61 34 68 16z"/> <path d="M3009 1686 c-112 -40 -239 -206 -239 -311 0 -58 10 -69 56 -60 31 5 56 24 124 94 132 134 186 258 124 281 -14 6 -26 10 -27 10 -1 -1 -18 -7 -38 -14z m57 -60 c-3 -34 -52 -114 -93 -153 -13 -13 -22 -23 -18 -23 10 0 -80 -82 -107 -96 -28 -15 -58 -10 -58 10 1 6 7 29 15 50 8 22 12 43 9 48 -3 4 -1 8 3 8 5 0 17 16 27 35 29 54 137 147 183 157 32 7 42 -2 39 -36z"/> <path d="M2053 2085 c-31 -22 -103 -134 -166 -261 -57 -115 -109 -235 -104 -241 4 -4 163 214 221 304 102 159 125 251 49 198z"/> <path d="M1633 1948 c-30 -37 -17 -88 21 -88 23 0 48 37 44 67 -2 22 -9 29 -29 31 -14 2 -30 -3 -36 -10z"/> <path d="M445 850 c-21 -5 -26 -9 -15 -13 8 -4 827 -8 1819 -10 1433 -1 1805 -5 1809 -15 3 -9 -365 -12 -1817 -12 -1643 0 -1821 2 -1821 16 0 8 -5 12 -10 9 -8 -5 -7 -11 1 -21 12 -14 7 -18 -23 -15 -26 3 -22 -16 5 -23 29 -7 3625 -8 3664 0 25 5 29 10 25 31 -3 13 -11 27 -18 30 -8 3 -12 9 -9 13 3 5 -3 11 -12 14 -27 8 -3563 4 -3598 -4z"/> <path d="M4109 761 c7 -5 10 -14 7 -20 -5 -8 -516 -11 -1877 -11 -1487 0 -1870 -3 -1867 -12 4 -10 390 -13 1861 -13 l1856 0 22 21 c21 22 19 44 -4 44 -8 0 -7 -3 2 -9z"/> <path d="M464 683 c-32 -6 -48 -46 -48 -123 0 -53 4 -74 17 -87 19 -19 102 -29 112 -14 3 6 13 11 22 11 9 0 21 8 28 17 11 15 14 15 35 -5 27 -25 29 -26 66 -12 17 7 30 7 38 1 25 -21 84 -20 111 1 21 17 23 22 13 41 -6 12 -19 28 -30 35 -10 8 -18 25 -18 42 0 49 -20 80 -51 80 -15 0 -31 -5 -34 -10 -5 -8 -12 -7 -22 1 -22 19 -64 17 -77 -3 -13 -22 -20 -22 -40 -2 -9 8 -27 17 -41 18 -14 1 -28 6 -32 9 -7 7 -13 7 -49 0z m106 -53 c27 -27 34 -64 18 -96 -17 -36 -52 -54 -105 -54 l-43 0 0 85 0 85 55 0 c41 0 60 -5 75 -20z m110 -65 c0 -78 -2 -85 -20 -85 -18 0 -20 7 -20 85 0 78 2 85 20 85 18 0 20 -7 20 -85z m100 20 l0 -65 30 0 c23 0 30 -4 30 -20 0 -17 -7 -20 -50 -20 l-50 0 0 85 c0 78 2 85 20 85 18 0 20 -7 20 -65z"/> <path d="M482 570 c-1 -45 1 -50 21 -50 29 0 43 10 51 37 8 26 -23 63 -53 63 -16 0 -19 -8 -19 -50z"/> <path d="M1126 672 c-27 -11 -43 -13 -55 -6 -9 6 -34 11 -56 12 -35 2 -43 -2 -61 -30 -16 -26 -19 -40 -12 -63 4 -16 5 -42 2 -57 -12 -60 52 -96 116 -64 22 11 38 12 56 6 37 -14 117 -15 143 -1 15 8 21 9 17 2 -13 -20 40 -12 60 10 13 15 16 24 8 36 -19 30 -42 39 -65 25 -11 -7 -23 -12 -25 -9 -6 5 -7 77 -3 101 3 13 -6 25 -26 37 -36 21 -49 22 -99 1z m-56 -34 c0 -5 0 -12 0 -18 0 -5 -13 -7 -29 -4 -45 9 -46 -13 -1 -36 28 -14 40 -27 40 -42 0 -48 -61 -74 -111 -47 -32 17 -6 39 37 32 46 -8 44 12 -3 34 -78 37 -41 114 44 93 13 -3 23 -8 23 -12z m170 -3 c0 -11 -11 -15 -41 -15 -33 0 -40 -3 -37 -17 2 -12 13 -17 33 -18 20 0 31 -6 33 -17 3 -15 -4 -18 -32 -18 -25 0 -36 -4 -36 -15 0 -11 11 -15 39 -15 32 0 39 -4 43 -22 4 -22 2 -23 -59 -20 l-63 4 0 84 0 84 60 0 c47 0 60 -3 60 -15z m88 -128 c4 -20 -25 -34 -40 -19 -15 15 -1 44 19 40 10 -2 19 -11 21 -21z"/> <path d="M1485 681 c-54 -16 -58 -23 -57 -111 2 -97 15 -120 69 -120 33 0 82 18 115 42 14 10 21 9 40 -8 34 -30 79 -47 92 -34 5 5 18 10 27 10 9 0 22 7 29 15 16 19 39 19 59 1 20 -17 101 -30 101 -16 0 5 6 10 13 10 8 0 18 10 23 21 10 21 10 21 41 -5 40 -34 60 -33 81 4 9 16 19 30 22 30 3 0 20 -13 38 -30 18 -16 37 -30 43 -30 5 0 9 -4 9 -10 0 -5 7 -10 16 -10 8 0 13 4 10 9 -4 5 5 8 19 6 14 -1 25 2 25 7 0 5 4 7 8 4 5 -3 19 4 32 16 l23 22 22 -27 c13 -14 26 -23 30 -19 4 4 10 7 13 8 4 0 15 4 25 9 11 4 28 3 41 -5 30 -16 62 -5 70 23 12 45 6 155 -8 170 -15 15 -62 12 -72 -5 -4 -5 -10 -5 -17 0 -21 17 -66 20 -78 6 -15 -18 -34 -18 -63 1 -27 18 -103 18 -137 -1 -20 -10 -28 -9 -52 8 -26 19 -51 20 -100 5 -60 -19 -70 -19 -78 -4 -10 18 -53 10 -95 -18 -27 -17 -54 -20 -54 -5 0 6 -5 10 -11 10 -6 0 -16 6 -24 13 -7 8 -24 13 -37 11 -12 -1 -30 -3 -39 -3 -9 -1 -28 -12 -43 -26 -30 -28 -56 -33 -56 -10 0 15 -48 40 -58 31 -2 -3 -12 -2 -21 3 -9 4 -25 5 -36 2z m810 -36 c58 -24 71 -84 29 -134 -35 -42 -84 -43 -125 -2 -16 16 -29 39 -29 50 0 36 24 74 55 87 37 16 30 16 70 -1z m-716 -12 c12 -10 24 -34 27 -54 5 -28 1 -41 -18 -64 -20 -23 -35 -29 -81 -33 l-57 -4 0 86 0 86 54 0 c36 0 61 -6 75 -17z m216 -8 c41 -40 33 -105 -16 -130 -39 -21 -72 -19 -103 6 -34 27 -37 98 -6 129 29 29 94 27 125 -5z m180 5 c0 -11 -9 -14 -32 -12 -46 4 -49 -15 -6 -35 31 -15 39 -24 41 -50 3 -27 -1 -35 -22 -44 -35 -16 -98 -3 -94 19 4 17 13 19 52 11 34 -7 28 20 -7 35 -40 16 -53 45 -37 76 9 18 19 21 58 18 34 -2 47 -7 47 -18z m175 5 c0 -9 -9 -15 -25 -15 -24 0 -25 -2 -25 -70 0 -63 -2 -70 -20 -70 -18 0 -20 7 -20 70 0 68 -1 70 -25 70 -16 0 -25 6 -25 15 0 12 14 15 70 15 56 0 70 -3 70 -15z m323 -37 l37 -52 0 52 c0 43 3 52 18 52 16 0 18 -9 16 -82 -2 -100 -15 -109 -62 -44 -48 66 -55 67 -47 6 7 -50 6 -52 -15 -48 -21 3 -23 8 -24 86 -1 76 1 82 19 82 12 0 34 -20 58 -52z"/> <path d="M2233 608 c-32 -41 -18 -88 27 -88 23 0 33 6 42 25 20 45 -40 100 -69 63z"/> <path d="M1490 570 c0 -46 2 -50 24 -50 26 0 56 23 56 43 0 25 -32 57 -56 57 -22 0 -24 -4 -24 -50z"/> <path d="M1702 608 c-14 -14 -16 -57 -3 -76 15 -24 64 -10 75 20 16 46 -39 89 -72 56z"/> <path d="M2885 682 c-11 -2 -24 -8 -28 -12 -5 -4 -25 -3 -44 2 -25 7 -44 6 -60 -1 -12 -6 -23 -7 -23 -3 0 5 -14 7 -31 4 -40 -6 -52 -38 -46 -121 6 -84 14 -90 127 -86 67 2 92 0 101 -11 13 -16 45 -19 54 -4 4 6 10 8 15 5 14 -9 52 46 41 59 -6 6 -9 27 -7 46 3 40 -15 59 -56 60 -21 0 -28 -5 -28 -20 0 -16 5 -19 30 -13 26 5 30 3 30 -16 0 -17 -6 -21 -30 -21 -20 0 -30 -5 -30 -15 0 -10 11 -15 35 -15 28 0 35 -4 35 -20 0 -18 -7 -20 -55 -20 l-55 0 0 85 0 85 55 0 c48 0 55 -2 55 -20 0 -22 15 -27 23 -7 13 33 -53 69 -108 59z m-165 -66 l1 -31 27 31 c25 29 72 52 72 35 0 -4 -13 -20 -30 -36 -16 -16 -30 -32 -30 -35 0 -4 16 -28 35 -54 36 -46 36 -46 11 -46 -17 0 -33 12 -55 42 l-31 42 0 -42 c0 -35 -3 -42 -20 -42 -19 0 -20 7 -20 89 0 84 1 89 20 84 15 -4 20 -14 20 -37z"/> <path d="M3520 680 c0 -5 -6 -10 -12 -10 -16 -1 -45 -40 -50 -66 -9 -53 -43 -49 -58 7 -14 51 -50 77 -86 60 -14 -6 -28 -20 -31 -31 -3 -11 -9 -20 -13 -20 -5 0 -12 -9 -15 -20 -10 -32 -23 -23 -23 16 0 45 -11 57 -60 61 -69 7 -122 -61 -88 -112 13 -19 13 -25 1 -42 -12 -17 -12 -23 2 -42 12 -18 23 -22 53 -19 27 2 36 0 33 -9 -7 -19 5 -16 29 7 18 17 23 18 41 5 13 -9 25 -11 32 -5 17 14 82 15 98 1 12 -9 21 -10 37 -1 12 6 34 8 51 5 18 -4 36 -2 44 5 11 9 22 9 50 -1 31 -12 40 -11 65 3 25 14 31 14 49 1 28 -19 60 -8 67 25 10 48 22 78 23 60 1 -10 6 -18 11 -18 6 0 10 -6 9 -12 -5 -40 2 -56 28 -63 18 -4 31 -2 38 7 12 17 30 17 47 1 14 -15 58 -17 58 -3 0 6 7 10 15 10 8 0 15 -4 15 -9 0 -17 39 -19 54 -2 21 23 20 55 0 76 -12 11 -20 13 -29 5 -18 -15 -29 5 -27 47 2 19 -2 33 -8 33 -6 0 -9 4 -6 9 16 25 -19 29 -266 35 -34 1 -54 5 -50 11 7 11 -30 -15 -40 -29 -3 -5 -23 1 -43 12 -41 25 -45 26 -45 12z m-310 -42 c0 -5 0 -13 0 -18 0 -7 -13 -8 -35 -4 -50 9 -46 -16 5 -38 30 -12 40 -22 40 -39 0 -49 -61 -75 -111 -48 -29 15 -7 41 25 29 23 -8 56 3 44 15 -4 4 -21 14 -40 23 -52 26 -49 86 5 94 27 4 67 -4 67 -14z m176 -71 c26 -69 29 -83 16 -86 -9 -2 -21 4 -27 13 -16 21 -85 22 -85 1 0 -8 -9 -15 -20 -15 -25 0 -25 4 4 76 12 32 26 67 29 77 4 9 16 17 29 17 20 0 28 -13 54 -83z m200 -2 l31 -85 -24 0 c-14 0 -23 6 -23 15 0 11 -11 15 -40 15 -29 0 -40 -4 -40 -15 0 -8 -9 -15 -20 -15 -25 0 -25 -1 8 92 24 69 30 78 52 78 22 0 28 -10 56 -85z m174 70 c0 -9 -9 -15 -25 -15 -24 0 -25 -2 -25 -70 0 -63 -2 -70 -20 -70 -18 0 -20 7 -20 71 0 67 -1 70 -22 67 -15 -2 -24 3 -26 15 -3 15 5 17 67 17 56 0 71 -3 71 -15z m80 -19 c0 -32 2 -34 33 -31 29 2 32 5 29 34 -3 27 0 31 20 31 22 0 23 -3 22 -82 -1 -78 -3 -83 -24 -86 -21 -3 -22 -1 -16 32 7 36 7 36 -29 36 -33 0 -35 -2 -35 -35 0 -28 -4 -35 -20 -35 -18 0 -20 7 -20 85 0 78 2 85 20 85 16 0 20 -7 20 -34z m198 -109 c4 -20 -25 -34 -40 -19 -15 15 -1 44 19 40 10 -2 19 -11 21 -21z"/> <path d="M3322 580 c-15 -42 -16 -40 8 -40 21 0 25 19 11 54 -7 18 -9 16 -19 -14z"/> <path d="M3516 578 c-9 -35 -8 -38 14 -38 11 0 20 3 20 8 0 19 -13 52 -20 52 -4 0 -10 -10 -14 -22z"/> <path d="M1008 429 c-5 -4 -134 -5 -286 -3 -305 3 -348 0 -362 -26 -13 -25 10 -52 46 -53 16 0 23 -2 17 -4 -17 -6 10 -60 34 -67 10 -3 819 -4 1797 -3 1920 2 1814 -2 1804 52 -3 15 1 21 15 22 23 2 47 21 47 39 0 22 -38 36 -107 40 -35 2 -69 6 -75 10 -6 4 -8 3 -5 -3 8 -13 -701 -17 -768 -4 -25 5 -45 5 -45 1 0 -4 -269 -6 -597 -4 -329 2 -602 4 -608 4 -5 0 -161 -1 -345 -1 -184 -1 -384 0 -443 2 -60 2 -113 1 -119 -2z m3092 -44 c0 -7 -630 -11 -1865 -13 -1655 -2 -1865 0 -1865 13 0 13 210 15 1865 13 1235 -2 1865 -6 1865 -13z m-52 -67 c-4 -10 -376 -14 -1806 -16 -1598 -2 -1802 0 -1802 13 0 13 206 15 1806 15 1440 0 1805 -3 1802 -12z"/> </g> </svg> 